<?xml version="1.0" encoding="UTF-8"?>
<!DOCTYPE svg PUBLIC "-//W3C//DTD SVG 1.1//EN" "http://www.w3.org/Graphics/SVG/1.1/DTD/svg11.dtd">
<svg version="1.2" width="80.23mm" height="74.01mm" viewBox="5931 8300 8023 7401" preserveAspectRatio="xMidYMid" fill-rule="evenodd" stroke-width="28.222" stroke-linejoin="round" xmlns="http://www.w3.org/2000/svg" xmlns:ooo="http://xml.openoffice.org/svg/export" xmlns:xlink="http://www.w3.org/1999/xlink" xmlns:presentation="http://sun.com/xmlns/staroffice/presentation" xmlns:smil="http://www.w3.org/2001/SMIL20/" xmlns:anim="urn:oasis:names:tc:opendocument:xmlns:animation:1.0" xml:space="preserve">
 <defs class="ClipPathGroup">
  <clipPath id="presentation_clip_path" clipPathUnits="userSpaceOnUse">
   <rect x="5931" y="8300" width="8023" height="7401"/>
  </clipPath>
  <clipPath id="presentation_clip_path_shrink" clipPathUnits="userSpaceOnUse">
   <rect x="5939" y="8307" width="8007" height="7387"/>
  </clipPath>
 </defs>
 <defs class="TextShapeIndex">
  <g ooo:slide="id1" ooo:id-list="id3 id4 id5 id6 id7 id8 id9 id10 id11 id12 id13 id14 id15 id16 id17 id18 id19 id20 id21"/>
 </defs>
 <defs class="EmbeddedBulletChars">
  <g id="bullet-char-template-57356" transform="scale(0.00048828125,-0.00048828125)">
   <path d="M 580,1141 L 1163,571 580,0 -4,571 580,1141 Z"/>
  </g>
  <g id="bullet-char-template-57354" transform="scale(0.00048828125,-0.00048828125)">
   <path d="M 8,1128 L 1137,1128 1137,0 8,0 8,1128 Z"/>
  </g>
  <g id="bullet-char-template-10146" transform="scale(0.00048828125,-0.00048828125)">
   <path d="M 174,0 L 602,739 174,1481 1456,739 174,0 Z M 1358,739 L 309,1346 659,739 1358,739 Z"/>
  </g>
  <g id="bullet-char-template-10132" transform="scale(0.00048828125,-0.00048828125)">
   <path d="M 2015,739 L 1276,0 717,0 1260,543 174,543 174,936 1260,936 717,1481 1274,1481 2015,739 Z"/>
  </g>
  <g id="bullet-char-template-10007" transform="scale(0.00048828125,-0.00048828125)">
   <path d="M 0,-2 C -7,14 -16,27 -25,37 L 356,567 C 262,823 215,952 215,954 215,979 228,992 255,992 264,992 276,990 289,987 310,991 331,999 354,1012 L 381,999 492,748 772,1049 836,1024 860,1049 C 881,1039 901,1025 922,1006 886,937 835,863 770,784 769,783 710,716 594,584 L 774,223 C 774,196 753,168 711,139 L 727,119 C 717,90 699,76 672,76 641,76 570,178 457,381 L 164,-76 C 142,-110 111,-127 72,-127 30,-127 9,-110 8,-76 1,-67 -2,-52 -2,-32 -2,-23 -1,-13 0,-2 Z"/>
  </g>
  <g id="bullet-char-template-10004" transform="scale(0.00048828125,-0.00048828125)">
   <path d="M 285,-33 C 182,-33 111,30 74,156 52,228 41,333 41,471 41,549 55,616 82,672 116,743 169,778 240,778 293,778 328,747 346,684 L 369,508 C 377,444 397,411 428,410 L 1163,1116 C 1174,1127 1196,1133 1229,1133 1271,1133 1292,1118 1292,1087 L 1292,965 C 1292,929 1282,901 1262,881 L 442,47 C 390,-6 338,-33 285,-33 Z"/>
  </g>
  <g id="bullet-char-template-9679" transform="scale(0.00048828125,-0.00048828125)">
   <path d="M 813,0 C 632,0 489,54 383,161 276,268 223,411 223,592 223,773 276,916 383,1023 489,1130 632,1184 813,1184 992,1184 1136,1130 1245,1023 1353,916 1407,772 1407,592 1407,412 1353,268 1245,161 1136,54 992,0 813,0 Z"/>
  </g>
  <g id="bullet-char-template-8226" transform="scale(0.00048828125,-0.00048828125)">
   <path d="M 346,457 C 273,457 209,483 155,535 101,586 74,649 74,723 74,796 101,859 155,911 209,963 273,989 346,989 419,989 480,963 531,910 582,859 608,796 608,723 608,648 583,586 532,535 482,483 420,457 346,457 Z"/>
  </g>
  <g id="bullet-char-template-8211" transform="scale(0.00048828125,-0.00048828125)">
   <path d="M -4,459 L 1135,459 1135,606 -4,606 -4,459 Z"/>
  </g>
  <g id="bullet-char-template-61548" transform="scale(0.00048828125,-0.00048828125)">
   <path d="M 173,740 C 173,903 231,1043 346,1159 462,1274 601,1332 765,1332 928,1332 1067,1274 1183,1159 1299,1043 1357,903 1357,740 1357,577 1299,437 1183,322 1067,206 928,148 765,148 601,148 462,206 346,322 231,437 173,577 173,740 Z"/>
  </g>
 </defs>
 <defs class="TextEmbeddedBitmaps"/>
 <g class="SlideGroup">
  <g>
   <g id="container-id1">
    <g id="id1" class="Slide" clip-path="url(#presentation_clip_path)">
     <g class="Page">
      <g class="com.sun.star.drawing.CustomShape">
       <g id="id3">
        <rect class="BoundingBox" stroke="none" fill="none" x="6799" y="9700" width="6303" height="6003"/>
        <path fill="rgb(247,148,72)" stroke="none" d="M 9950,9700 C 11736,9700 13100,10999 13100,12700 13100,14401 11736,15700 9950,15700 8164,15700 6800,14401 6800,12700 6800,10999 8164,9700 9950,9700 Z M 6800,9700 L 6800,9700 Z M 13101,15701 L 13101,15701 Z"/>
       </g>
      </g>
      <g class="com.sun.star.drawing.CustomShape">
       <g id="id4">
        <rect class="BoundingBox" stroke="none" fill="none" x="6986" y="13286" width="6030" height="2030"/>
        <path fill="rgb(114,159,207)" stroke="none" d="M 7000,13300 L 13001,13300 10971,15301 9029,15301 7000,13300 Z M 7000,13300 L 7000,13300 Z M 13001,15301 L 13001,15301 Z"/>
        <path fill="none" stroke="rgb(114,159,207)" stroke-width="28" stroke-linejoin="round" d="M 7000,13300 L 13001,13300 10971,15301 9029,15301 7000,13300 Z"/>
       </g>
      </g>
      <g class="com.sun.star.drawing.CustomShape">
       <g id="id5">
        <rect class="BoundingBox" stroke="none" fill="none" x="6982" y="10281" width="6038" height="3038"/>
        <path fill="rgb(114,159,207)" stroke="none" d="M 7000,13300 L 13001,13300 11996,10299 8004,10299 7000,13300 Z M 7000,13300 L 7000,13300 Z M 13001,10299 L 13001,10299 Z"/>
        <path fill="none" stroke="rgb(114,159,207)" stroke-width="35" stroke-linejoin="round" d="M 7000,13300 L 13001,13300 11996,10299 8004,10299 7000,13300 Z"/>
       </g>
      </g>
      <g class="com.sun.star.drawing.CustomShape">
       <g id="id6">
        <rect class="BoundingBox" stroke="none" fill="none" x="10428" y="8299" width="2315" height="3304"/>
        <path fill="rgb(114,159,207)" stroke="none" d="M 12742,8961 L 12400,11601 10428,10278 12742,8961 Z M 11756,8300 L 11756,8300 Z M 12400,11601 L 12400,11601 Z"/>
       </g>
      </g>
      <g class="com.sun.star.drawing.CustomShape">
       <g id="id7">
        <rect class="BoundingBox" stroke="none" fill="none" x="7221" y="8300" width="2315" height="3304"/>
        <path fill="rgb(114,159,207)" stroke="none" d="M 7221,8962 L 7563,11602 9535,10279 7221,8962 Z M 8207,8301 L 8207,8301 Z M 7563,11602 L 7563,11602 Z"/>
       </g>
      </g>
      <g class="com.sun.star.drawing.LineShape">
       <g id="id8">
        <rect class="BoundingBox" stroke="none" fill="none" x="11645" y="11579" width="2311" height="1643"/>
        <path fill="none" stroke="rgb(0,0,0)" stroke-width="81" stroke-linejoin="round" d="M 13914,11620 L 11686,13180"/>
       </g>
      </g>
      <g class="com.sun.star.drawing.CustomShape">
       <g id="id9">
        <rect class="BoundingBox" stroke="none" fill="none" x="9400" y="12900" width="1202" height="1102"/>
        <path fill="rgb(252,212,209)" stroke="none" d="M 10000,12900 L 9400,13321 9635,14001 10365,14001 10601,13321 10000,12900 10000,12900 Z M 9400,12900 L 9400,12900 Z M 10601,14001 L 10601,14001 Z"/>
       </g>
      </g>
      <g class="com.sun.star.drawing.LineShape">
       <g id="id10">
        <rect class="BoundingBox" stroke="none" fill="none" x="11631" y="13299" width="2311" height="1643"/>
        <path fill="none" stroke="rgb(0,0,0)" stroke-width="81" stroke-linejoin="round" d="M 13900,14900 L 11672,13340"/>
       </g>
      </g>
      <g class="com.sun.star.drawing.LineShape">
       <g id="id11">
        <rect class="BoundingBox" stroke="none" fill="none" x="8459" y="11559" width="483" height="883"/>
        <path fill="none" stroke="rgb(0,0,0)" stroke-width="81" stroke-linejoin="round" d="M 8900,11600 L 8500,12400"/>
       </g>
      </g>
      <g class="com.sun.star.drawing.LineShape">
       <g id="id12">
        <rect class="BoundingBox" stroke="none" fill="none" x="8859" y="11559" width="383" height="883"/>
        <path fill="none" stroke="rgb(0,0,0)" stroke-width="81" stroke-linejoin="round" d="M 9200,12400 L 8900,11600"/>
       </g>
      </g>
      <g class="com.sun.star.drawing.LineShape">
       <g id="id13">
        <rect class="BoundingBox" stroke="none" fill="none" x="5931" y="11579" width="2311" height="1643"/>
        <path fill="none" stroke="rgb(0,0,0)" stroke-width="81" stroke-linejoin="round" d="M 5972,11620 L 8200,13180"/>
       </g>
      </g>
      <g class="com.sun.star.drawing.LineShape">
       <g id="id14">
        <rect class="BoundingBox" stroke="none" fill="none" x="5945" y="13299" width="2311" height="1643"/>
        <path fill="none" stroke="rgb(0,0,0)" stroke-width="81" stroke-linejoin="round" d="M 5986,14900 L 8214,13340"/>
       </g>
      </g>
      <g class="com.sun.star.drawing.CustomShape">
       <g id="id15">
        <rect class="BoundingBox" stroke="none" fill="none" x="10998" y="9299" width="1230" height="1753"/>
        <path fill="rgb(252,211,193)" stroke="none" d="M 12226,9650 L 12045,11051 10999,10349 12226,9650 Z M 11703,9299 L 11703,9299 Z M 12045,11051 L 12045,11051 Z"/>
       </g>
      </g>
      <g class="com.sun.star.drawing.CustomShape">
       <g id="id16">
        <rect class="BoundingBox" stroke="none" fill="none" x="7659" y="9299" width="1229" height="1753"/>
        <path fill="rgb(252,211,193)" stroke="none" d="M 7660,9650 L 7841,11051 8886,10349 7660,9650 Z M 8182,9300 L 8182,9300 Z M 7841,11051 L 7841,11051 Z"/>
       </g>
      </g>
      <g class="com.sun.star.drawing.OpenBezierShape">
       <g id="id17">
        <rect class="BoundingBox" stroke="none" fill="none" x="8959" y="14059" width="2083" height="527"/>
        <path fill="none" stroke="rgb(0,0,0)" stroke-width="81" stroke-linejoin="round" d="M 9000,14100 C 10000,15100 11000,14100 11000,14100"/>
       </g>
      </g>
      <g class="com.sun.star.drawing.ConnectorShape">
       <g id="id18">
        <rect class="BoundingBox" stroke="none" fill="none" x="9959" y="14059" width="83" height="527"/>
        <path fill="none" stroke="rgb(0,0,0)" stroke-width="81" stroke-linejoin="round" d="M 10000,14100 L 10000,14544"/>
       </g>
      </g>
      <g class="com.sun.star.drawing.LineShape">
       <g id="id19">
        <rect class="BoundingBox" stroke="none" fill="none" x="10659" y="11559" width="483" height="883"/>
        <path fill="none" stroke="rgb(0,0,0)" stroke-width="81" stroke-linejoin="round" d="M 11100,11600 L 10700,12400"/>
       </g>
      </g>
      <g class="com.sun.star.drawing.LineShape">
       <g id="id20">
        <rect class="BoundingBox" stroke="none" fill="none" x="11059" y="11559" width="383" height="883"/>
        <path fill="none" stroke="rgb(0,0,0)" stroke-width="81" stroke-linejoin="round" d="M 11400,12400 L 11100,11600"/>
       </g>
      </g>
      <g class="com.sun.star.drawing.CustomShape">
       <g id="id21">
        <rect class="BoundingBox" stroke="none" fill="none" x="9579" y="13690" width="843" height="412"/>
        <path fill="rgb(252,212,209)" stroke="none" d="M 10368,13994 L 10357,14003 10346,14012 10333,14020 10320,14028 10306,14036 10291,14043 10275,14050 10259,14056 10242,14063 10224,14068 10206,14074 10187,14079 10168,14083 10148,14087 10128,14090 10108,14093 10087,14096 10067,14097 10046,14099 10025,14100 10003,14100 9982,14100 9961,14099 9940,14098 9919,14096 9899,14094 9878,14091 9858,14088 9838,14084 9819,14080 9800,14075 9782,14070 9764,14065 9747,14059 9730,14052 9714,14045 9699,14038 9685,14030 9671,14023 9658,14014 9646,14006 9636,13997 10000,13895 10368,13994 Z M 9580,13690 L 9580,13690 Z M 10421,14101 L 10421,14101 Z"/>
       </g>
      </g>
     </g>
    </g>
   </g>
  </g>
 </g>
</svg>